<mxfile host="app.diagrams.net" modified="2024-06-25T03:52:29.886Z" agent="Mozilla/5.0 (Windows NT 10.0; Win64; x64) AppleWebKit/537.36 (KHTML, like Gecko) Chrome/126.0.0.0 Safari/537.36" etag="vTtPKZoJu_ea3Da6fnZ6" version="24.6.2" type="github">
  <diagram name="Page-1" id="jYWUEOgZj_ypcWH_xd38">
    <mxGraphModel dx="1323" dy="520" grid="1" gridSize="10" guides="1" tooltips="1" connect="1" arrows="1" fold="1" page="1" pageScale="1" pageWidth="827" pageHeight="1169" math="0" shadow="0">
      <root>
        <mxCell id="0" />
        <mxCell id="1" parent="0" />
        <mxCell id="9Sz5TGNaWO2JZGaKvKTW-25" style="edgeStyle=orthogonalEdgeStyle;rounded=0;orthogonalLoop=1;jettySize=auto;html=1;entryX=0;entryY=0.25;entryDx=0;entryDy=0;" edge="1" parent="1" source="9Sz5TGNaWO2JZGaKvKTW-5" target="9Sz5TGNaWO2JZGaKvKTW-3">
          <mxGeometry relative="1" as="geometry" />
        </mxCell>
        <mxCell id="9Sz5TGNaWO2JZGaKvKTW-5" value="Backend" style="rounded=0;whiteSpace=wrap;html=1;" vertex="1" parent="1">
          <mxGeometry x="20" y="370" width="80" height="40" as="geometry" />
        </mxCell>
        <mxCell id="9Sz5TGNaWO2JZGaKvKTW-19" style="edgeStyle=orthogonalEdgeStyle;rounded=0;orthogonalLoop=1;jettySize=auto;html=1;" edge="1" parent="1" source="9Sz5TGNaWO2JZGaKvKTW-6" target="9Sz5TGNaWO2JZGaKvKTW-7">
          <mxGeometry relative="1" as="geometry" />
        </mxCell>
        <mxCell id="9Sz5TGNaWO2JZGaKvKTW-6" value="User" style="rounded=0;whiteSpace=wrap;html=1;" vertex="1" parent="1">
          <mxGeometry x="740" y="360" width="70" height="40" as="geometry" />
        </mxCell>
        <mxCell id="9Sz5TGNaWO2JZGaKvKTW-20" style="edgeStyle=orthogonalEdgeStyle;rounded=0;orthogonalLoop=1;jettySize=auto;html=1;entryX=1;entryY=0.5;entryDx=0;entryDy=0;" edge="1" parent="1" source="9Sz5TGNaWO2JZGaKvKTW-7" target="9Sz5TGNaWO2JZGaKvKTW-15">
          <mxGeometry relative="1" as="geometry" />
        </mxCell>
        <mxCell id="9Sz5TGNaWO2JZGaKvKTW-21" style="edgeStyle=orthogonalEdgeStyle;rounded=0;orthogonalLoop=1;jettySize=auto;html=1;entryX=1;entryY=0.5;entryDx=0;entryDy=0;" edge="1" parent="1" source="9Sz5TGNaWO2JZGaKvKTW-7" target="9Sz5TGNaWO2JZGaKvKTW-8">
          <mxGeometry relative="1" as="geometry" />
        </mxCell>
        <mxCell id="9Sz5TGNaWO2JZGaKvKTW-26" style="edgeStyle=orthogonalEdgeStyle;rounded=0;orthogonalLoop=1;jettySize=auto;html=1;entryX=0;entryY=0.75;entryDx=0;entryDy=0;exitX=1;exitY=0.75;exitDx=0;exitDy=0;" edge="1" parent="1" source="9Sz5TGNaWO2JZGaKvKTW-7" target="9Sz5TGNaWO2JZGaKvKTW-6">
          <mxGeometry relative="1" as="geometry" />
        </mxCell>
        <mxCell id="9Sz5TGNaWO2JZGaKvKTW-7" value="User Interface" style="rounded=0;whiteSpace=wrap;html=1;" vertex="1" parent="1">
          <mxGeometry x="520" y="360" width="100" height="50" as="geometry" />
        </mxCell>
        <mxCell id="9Sz5TGNaWO2JZGaKvKTW-8" value="Chat Room Service" style="rounded=0;whiteSpace=wrap;html=1;" vertex="1" parent="1">
          <mxGeometry x="319" y="430" width="110" height="50" as="geometry" />
        </mxCell>
        <mxCell id="9Sz5TGNaWO2JZGaKvKTW-9" value="MongoDB" style="strokeWidth=2;html=1;shape=mxgraph.flowchart.database;whiteSpace=wrap;" vertex="1" parent="1">
          <mxGeometry x="30" y="560" width="70" height="60" as="geometry" />
        </mxCell>
        <mxCell id="9Sz5TGNaWO2JZGaKvKTW-13" value="" style="swimlane;startSize=0;" vertex="1" parent="1">
          <mxGeometry x="160" y="270" width="280" height="260" as="geometry" />
        </mxCell>
        <mxCell id="9Sz5TGNaWO2JZGaKvKTW-23" style="edgeStyle=orthogonalEdgeStyle;rounded=0;orthogonalLoop=1;jettySize=auto;html=1;entryX=0.5;entryY=0;entryDx=0;entryDy=0;" edge="1" parent="9Sz5TGNaWO2JZGaKvKTW-13" source="9Sz5TGNaWO2JZGaKvKTW-15" target="9Sz5TGNaWO2JZGaKvKTW-3">
          <mxGeometry relative="1" as="geometry" />
        </mxCell>
        <mxCell id="9Sz5TGNaWO2JZGaKvKTW-15" value="Message Service" style="rounded=0;whiteSpace=wrap;html=1;" vertex="1" parent="9Sz5TGNaWO2JZGaKvKTW-13">
          <mxGeometry x="154" y="50" width="100" height="40" as="geometry" />
        </mxCell>
        <mxCell id="9Sz5TGNaWO2JZGaKvKTW-14" value="&lt;font style=&quot;font-size: 18px;&quot;&gt;Model&lt;/font&gt;" style="text;html=1;align=center;verticalAlign=middle;resizable=0;points=[];autosize=1;strokeColor=none;fillColor=none;" vertex="1" parent="9Sz5TGNaWO2JZGaKvKTW-13">
          <mxGeometry x="84" width="70" height="40" as="geometry" />
        </mxCell>
        <mxCell id="9Sz5TGNaWO2JZGaKvKTW-3" value="Web&amp;nbsp;&lt;span style=&quot;background-color: initial;&quot;&gt;Socket&lt;/span&gt;&lt;div&gt;&lt;div&gt;&lt;br&gt;&lt;/div&gt;&lt;/div&gt;" style="rounded=0;whiteSpace=wrap;html=1;" vertex="1" parent="9Sz5TGNaWO2JZGaKvKTW-13">
          <mxGeometry x="20" y="110" width="100" height="40" as="geometry" />
        </mxCell>
        <mxCell id="9Sz5TGNaWO2JZGaKvKTW-16" value="" style="swimlane;startSize=0;" vertex="1" parent="1">
          <mxGeometry x="470" y="270" width="200" height="260" as="geometry" />
        </mxCell>
        <mxCell id="9Sz5TGNaWO2JZGaKvKTW-17" value="&lt;font style=&quot;font-size: 18px;&quot;&gt;UI&lt;/font&gt;" style="text;html=1;align=center;verticalAlign=middle;resizable=0;points=[];autosize=1;strokeColor=none;fillColor=none;" vertex="1" parent="1">
          <mxGeometry x="540" y="263" width="40" height="40" as="geometry" />
        </mxCell>
        <mxCell id="9Sz5TGNaWO2JZGaKvKTW-18" value="" style="endArrow=classic;startArrow=classic;html=1;rounded=0;entryX=0.5;entryY=1;entryDx=0;entryDy=0;" edge="1" parent="1" source="9Sz5TGNaWO2JZGaKvKTW-9" target="9Sz5TGNaWO2JZGaKvKTW-5">
          <mxGeometry width="50" height="50" relative="1" as="geometry">
            <mxPoint x="30" y="490" as="sourcePoint" />
            <mxPoint x="80" y="440" as="targetPoint" />
          </mxGeometry>
        </mxCell>
        <mxCell id="9Sz5TGNaWO2JZGaKvKTW-22" style="edgeStyle=orthogonalEdgeStyle;rounded=0;orthogonalLoop=1;jettySize=auto;html=1;entryX=0.67;entryY=0.972;entryDx=0;entryDy=0;entryPerimeter=0;" edge="1" parent="1" source="9Sz5TGNaWO2JZGaKvKTW-8" target="9Sz5TGNaWO2JZGaKvKTW-3">
          <mxGeometry relative="1" as="geometry" />
        </mxCell>
        <mxCell id="9Sz5TGNaWO2JZGaKvKTW-24" style="edgeStyle=orthogonalEdgeStyle;rounded=0;orthogonalLoop=1;jettySize=auto;html=1;entryX=1;entryY=0.5;entryDx=0;entryDy=0;" edge="1" parent="1" source="9Sz5TGNaWO2JZGaKvKTW-3" target="9Sz5TGNaWO2JZGaKvKTW-5">
          <mxGeometry relative="1" as="geometry" />
        </mxCell>
        <mxCell id="9Sz5TGNaWO2JZGaKvKTW-27" value="&lt;font style=&quot;font-size: 24px;&quot;&gt;Architecture Diagram&lt;/font&gt;" style="text;html=1;align=center;verticalAlign=middle;resizable=0;points=[];autosize=1;strokeColor=none;fillColor=none;" vertex="1" parent="1">
          <mxGeometry x="320" y="190" width="250" height="40" as="geometry" />
        </mxCell>
      </root>
    </mxGraphModel>
  </diagram>
</mxfile>
